<svg xmlns="http://www.w3.org/2000/svg" version="1.0" width="707.000000pt" height="353.000000pt" viewBox="0 0 707.000000 353.000000" preserveAspectRatio="xMidYMid meet">

<g transform="translate(0.000000,353.000000) scale(0.100000,-0.100000)" fill="#fcfcfc" stroke="none">
<path d="M4007 3362 c-19 -12 -32 -33 -42 -66 -19 -64 -19 -93 2 -195 l18 -83 -29 -23 c-15 -12 -33 -33 -40 -46 -11 -23 -29 -32 -90 -44 -27 -6 -28 -8 -22 -49 7 -47 -5 -65 -59 -84 -30 -10 -30 -10 13 -11 56 -1 85 26 80 77 -3 36 -2 37 37 43 23 4 44 14 50 25 5 11 27 36 49 57 44 44 47 67 22 163 -9 34 -16 85 -16 113 0 46 4 56 35 88 50 52 47 69 -8 35z" fill="#fcfcfc"/>
<path d="M3766 3319 c-19 -23 -38 -54 -41 -69 -3 -15 -17 -42 -31 -61 -17 -24 -24 -46 -24 -80 0 -30 -6 -51 -16 -59 -25 -22 -14 -62 21 -73 55 -18 68 -36 62 -92 -3 -27 -7 -59 -9 -69 -5 -34 20 -28 31 7 29 87 14 142 -45 167 -49 22 -51 25 -27 52 12 13 16 32 14 59 -2 30 4 51 22 77 13 20 27 49 31 64 3 15 20 43 36 62 30 34 38 56 21 56 -5 0 -25 -19 -45 -41z" fill="#fcfcfc"/>
<path d="M2995 3336 c-24 -19 -26 -18 57 -21 50 -1 80 -9 119 -28 28 -15 66 -27 85 -27 25 0 44 -9 73 -35 29 -27 47 -35 76 -35 36 0 37 -1 30 -27 -11 -45 -17 -122 -11 -147 4 -17 29 -34 105 -69 130 -60 169 -110 124 -159 -22 -25 -9 -34 22 -14 76 50 17 141 -132 201 -88 36 -112 79 -79 143 36 72 23 102 -43 102 -29 0 -44 7 -70 34 -25 26 -43 35 -81 39 -27 3 -67 15 -90 27 -55 28 -158 37 -185 16z" fill="#fcfcfc"/>
<path d="M3155 2983 c-11 -3 -38 -20 -60 -37 -78 -63 -142 -97 -191 -102 -42 -5 -54 -2 -82 19 -20 15 -41 23 -50 20 -29 -12 54 -73 99 -73 60 0 139 31 222 87 43 29 84 53 91 53 7 0 25 -9 39 -20 14 -11 39 -20 56 -20 38 0 63 -24 89 -83 25 -57 36 -63 71 -38 16 12 38 21 49 21 19 0 82 -61 82 -80 0 -6 5 -10 10 -10 36 0 -22 100 -70 120 -27 11 -36 11 -66 -3 l-35 -17 -18 43 c-23 52 -36 63 -90 76 -23 5 -50 16 -59 24 -20 18 -59 27 -87 20z" fill="#fcfcfc"/>
<path d="M3260 2731 c-155 -64 -322 -185 -478 -346 -57 -58 -107 -103 -111 -100 -5 2 -12 17 -15 31 -33 132 -217 212 -424 185 -184 -23 -282 -115 -282 -265 0 -87 15 -120 80 -177 65 -57 96 -113 86 -153 -4 -15 -27 -42 -54 -61 -57 -43 -263 -145 -350 -174 -163 -55 -305 -206 -314 -336 -3 -41 -32 -69 -138 -135 -166 -101 -268 -141 -431 -166 -98 -15 -130 -16 -228 -6 -63 6 -118 9 -123 6 -16 -10 -8 -32 15 -37 61 -15 225 -19 334 -7 170 18 268 55 423 159 47 32 101 67 121 79 l37 22 20 -44 c46 -97 168 -153 356 -163 189 -10 325 20 546 122 63 29 129 55 146 58 31 6 32 4 50 -46 26 -71 65 -91 189 -95 193 -7 277 27 638 263 122 79 159 97 229 110 31 6 39 4 44 -10 11 -27 -24 -82 -80 -128 -105 -84 -126 -109 -126 -144 0 -23 8 -42 26 -60 22 -22 32 -25 78 -21 42 4 73 16 147 61 52 31 106 60 120 65 14 6 38 21 55 35 33 27 87 57 105 57 8 0 9 -13 5 -43 -8 -51 17 -97 66 -124 57 -31 173 -25 300 16 l107 34 36 -31 c19 -18 47 -35 61 -38 54 -14 146 5 243 50 124 58 150 60 193 19 68 -66 191 -88 328 -59 116 25 220 102 194 144 -19 29 -55 26 -131 -14 -54 -28 -90 -39 -133 -42 -94 -7 -141 38 -88 84 37 33 78 106 78 140 0 28 -4 33 -27 36 -24 3 -28 9 -38 62 -20 99 -75 125 -237 113 -63 -5 -93 -14 -151 -43 -90 -45 -194 -113 -229 -151 -14 -15 -39 -39 -54 -53 -38 -34 -64 -80 -64 -111 0 -25 -6 -28 -102 -54 -57 -14 -119 -25 -138 -23 -32 3 -35 6 -38 39 -2 20 6 59 17 88 27 67 26 92 -4 121 -20 19 -32 22 -67 17 -50 -6 -174 -64 -303 -142 -49 -30 -94 -54 -98 -55 -5 0 17 30 49 68 32 37 64 75 72 84 39 48 31 142 -16 178 -22 18 -35 20 -71 15 -54 -8 -244 -97 -330 -153 -34 -23 -65 -42 -67 -42 -11 0 -164 -121 -164 -129 0 -35 -292 -141 -388 -141 -49 0 -92 33 -92 72 0 38 56 123 138 211 42 45 104 112 137 148 71 77 156 142 205 158 19 6 130 18 245 26 116 9 350 29 520 46 260 25 388 32 796 41 l487 12 111 -105 c62 -57 123 -110 137 -117 15 -8 63 -41 108 -73 249 -183 499 -331 658 -390 188 -70 342 -120 376 -122 31 -2 37 1 37 18 0 14 -10 22 -35 29 -97 26 -349 111 -408 137 -144 65 -440 247 -592 364 -25 19 -49 35 -53 35 -13 0 -109 76 -182 144 l-70 65 78 1 c56 0 78 3 75 12 -8 22 -75 48 -157 60 -66 10 -85 17 -93 33 -13 24 -76 104 -98 125 -9 8 -35 38 -58 67 -55 67 -104 90 -222 103 -277 31 -419 101 -686 335 -34 30 -86 65 -115 79 -179 82 -196 83 -288 16 -39 -29 -42 -33 -28 -48 15 -14 20 -13 56 13 52 35 101 35 183 -1 97 -43 123 -61 241 -165 68 -60 165 -132 202 -152 113 -60 283 -111 423 -126 55 -6 113 -16 127 -23 15 -7 70 -62 122 -123 l95 -110 -448 -6 c-439 -7 -553 -13 -1019 -58 -286 -28 -467 -43 -471 -38 -5 4 225 223 347 331 89 78 124 131 93 143 -26 10 -117 -26 -167 -65 -103 -81 -223 -181 -320 -269 -156 -140 -170 -148 -266 -162 -131 -19 -150 -32 -137 -87 7 -26 8 -26 71 -19 36 3 65 4 65 0 0 -14 -47 -62 -174 -180 -81 -76 -139 -139 -158 -171 -24 -44 -35 -53 -65 -59 -20 -3 -104 -28 -187 -55 -162 -52 -188 -57 -311 -70 -91 -9 -228 3 -292 26 -45 16 -83 64 -83 102 0 53 32 103 94 146 58 40 318 186 332 186 4 0 21 11 38 24 39 29 99 60 169 86 90 34 122 105 75 166 -12 16 -52 62 -90 101 -78 84 -98 124 -98 200 0 61 22 92 85 119 102 42 295 -24 295 -101 0 -12 -11 -36 -25 -55 -44 -59 -32 -100 29 -100 47 0 80 19 106 62 20 33 102 119 251 263 142 137 311 243 445 280 l61 17 100 -51 c105 -54 167 -67 161 -33 -2 10 -21 23 -48 32 -25 8 -79 32 -119 53 -88 45 -130 47 -221 8z m1734 -1194 c9 -7 20 -31 23 -53 5 -38 3 -42 -46 -86 -55 -50 -207 -129 -281 -148 -78 -19 -123 14 -100 74 11 29 95 116 113 116 6 0 20 9 31 19 12 11 46 32 76 47 86 43 152 54 184 31z" fill="#fcfcfc"/>
<path d="M3400 2600 c-71 -39 -108 -70 -112 -95 -4 -28 30 -32 40 -5 5 13 37 36 82 58 43 21 75 43 75 52 0 25 -27 21 -85 -10z" fill="#fcfcfc"/>
<path d="M3782 2538 c2 -6 35 -28 74 -49 38 -20 74 -47 81 -60 16 -30 37 -31 41 -2 4 28 -34 66 -100 99 -51 26 -102 32 -96 12z" fill="#fcfcfc"/>
<path d="M1480 844 c0 -64 3 -85 13 -82 6 3 13 17 15 31 3 22 8 27 31 27 15 0 35 8 44 18 39 43 4 92 -65 92 l-38 0 0 -86z m86 41 c8 -20 -13 -45 -37 -45 -14 0 -19 7 -19 30 0 25 4 30 25 30 14 0 28 -7 31 -15z" fill="#fcfcfc"/>
<path d="M1740 845 c0 -69 3 -85 15 -85 12 0 15 16 15 85 0 69 -3 85 -15 85 -12 0 -15 -16 -15 -85z" fill="#fcfcfc"/>
<path d="M1920 915 c0 -10 11 -15 35 -15 19 0 35 -2 35 -6 0 -3 -18 -31 -40 -63 -21 -32 -36 -61 -33 -65 10 -10 111 -7 118 4 4 6 -10 10 -34 10 -23 0 -41 3 -41 8 0 4 18 34 39 66 22 33 38 63 35 68 -3 4 -30 8 -60 8 -41 0 -54 -4 -54 -15z" fill="#fcfcfc"/>
<path d="M2170 915 c0 -10 11 -15 35 -15 19 0 35 -2 35 -6 0 -3 -18 -32 -40 -64 -22 -32 -40 -61 -40 -64 0 -4 27 -6 60 -6 33 0 60 4 60 10 0 6 -18 10 -40 10 l-41 0 41 59 c55 82 53 91 -15 91 -42 0 -55 -3 -55 -15z" fill="#fcfcfc"/>
<path d="M2424 917 c-3 -8 -4 -45 -2 -83 l3 -69 53 -3 c59 -3 73 15 15 20 -30 2 -38 7 -38 23 0 15 8 21 33 23 38 4 39 25 1 31 -51 7 -46 41 7 41 24 0 34 5 34 15 0 20 -98 22 -106 2z" fill="#fcfcfc"/>
<path d="M2680 844 c0 -64 3 -85 13 -82 6 3 13 17 15 31 4 36 27 34 42 -3 7 -16 19 -30 26 -30 18 0 18 5 -2 36 -15 23 -15 26 0 43 38 42 8 91 -55 91 l-39 0 0 -86z m80 31 c0 -20 -5 -25 -25 -25 -20 0 -25 5 -25 25 0 20 5 25 25 25 20 0 25 -5 25 -25z" fill="#fcfcfc"/>
<path d="M2944 917 c-10 -27 1 -150 14 -155 9 -3 12 18 12 82 0 52 -4 86 -10 86 -6 0 -13 -6 -16 -13z" fill="#fcfcfc"/>
<path d="M3136 853 c-14 -43 -26 -81 -26 -86 0 -16 28 -6 33 13 7 27 44 26 67 -2 30 -38 33 -14 7 69 -33 105 -48 106 -81 6z m56 2 c4 -20 1 -25 -14 -25 -14 0 -18 5 -14 16 3 9 6 20 6 25 0 20 18 7 22 -16z" fill="#fcfcfc"/>
<path d="M3710 845 c0 -65 3 -86 13 -82 17 5 17 159 0 165 -10 3 -13 -18 -13 -83z" fill="#fcfcfc"/>
<path d="M3877 924 c-10 -11 2 -24 23 -24 17 0 19 -9 22 -67 2 -53 6 -68 18 -68 12 0 15 14 15 64 0 60 2 65 23 70 44 11 27 26 -33 29 -34 2 -64 0 -68 -4z" fill="#fcfcfc"/>
<path d="M4165 918 c-3 -7 -13 -38 -24 -68 -10 -30 -22 -63 -26 -72 -5 -13 -2 -18 10 -18 9 0 19 9 22 20 4 15 14 20 38 20 24 0 34 -5 38 -20 3 -11 12 -20 20 -20 22 0 -33 164 -56 168 -10 2 -19 -2 -22 -10z m34 -70 c1 -11 -6 -18 -18 -18 -17 0 -18 3 -8 36 9 30 12 33 18 18 4 -11 8 -27 8 -36z" fill="#fcfcfc"/>
<path d="M4390 845 l0 -85 50 0 c28 0 50 5 50 10 0 6 -16 10 -35 10 l-35 0 0 75 c0 60 -3 75 -15 75 -12 0 -15 -16 -15 -85z" fill="#fcfcfc"/>
<path d="M4630 845 c0 -69 3 -85 15 -85 12 0 15 16 15 85 0 69 -3 85 -15 85 -12 0 -15 -16 -15 -85z" fill="#fcfcfc"/>
<path d="M4840 905 c-22 -58 -41 -137 -35 -143 4 -4 14 3 22 16 20 29 69 30 78 2 3 -11 13 -20 22 -20 8 0 13 6 10 13 -2 6 -15 45 -28 85 -17 55 -27 72 -41 72 -10 0 -23 -11 -28 -25z m33 -73 c-21 -5 -24 1 -16 39 l6 33 12 -34 c10 -29 10 -36 -2 -38z" fill="#fcfcfc"/>
<path d="M5070 846 c0 -70 3 -86 15 -86 12 0 15 13 15 58 l0 57 33 -54 c48 -81 57 -78 57 23 0 51 -4 86 -10 86 -6 0 -10 -28 -10 -62 l-1 -63 -32 60 c-18 33 -40 61 -49 63 -16 3 -18 -6 -18 -82z" fill="#fcfcfc"/>
<path d="M5387 923 c-2 -5 -14 -41 -26 -82 -23 -75 -20 -103 6 -63 19 28 59 29 68 2 3 -11 13 -20 22 -20 8 0 13 6 10 13 -2 6 -15 45 -28 85 -20 64 -39 87 -52 65z m32 -85 c1 -5 -6 -8 -14 -8 -16 0 -19 9 -8 36 6 16 7 16 14 -2 4 -10 8 -22 8 -26z" fill="#fcfcfc"/>
<path d="M2445 690 c-136 -25 -304 -69 -640 -168 -120 -35 -160 -50 -153 -58 5 -5 152 30 253 61 44 13 105 28 135 34 30 5 118 23 196 40 206 45 353 62 444 51 82 -9 259 -46 299 -62 14 -5 64 -18 111 -28 47 -10 149 -36 228 -59 78 -23 190 -53 249 -67 261 -61 882 -55 1252 12 110 20 154 34 245 76 132 62 183 91 168 96 -6 2 -30 -8 -54 -22 -76 -44 -238 -96 -345 -111 -252 -36 -777 -43 -1071 -15 -96 9 -348 64 -537 117 -446 125 -571 141 -780 103z" fill="#fcfcfc"/>
</g>
</svg>